<mxfile host="app.diagrams.net" modified="2024-05-15T10:50:41.942Z" agent="Mozilla/5.0 (Windows NT 10.0; Win64; x64) AppleWebKit/537.36 (KHTML, like Gecko) Chrome/124.0.0.0 Safari/537.36" version="24.4.0" etag="2Qez4-R1f7WYAvwilgEY" type="gitlab">
  <diagram name="Sivu-1" id="n6eidxiueE-Efh4tHSI6">
    <mxGraphModel>
      <root>
        <mxCell id="0" />
        <mxCell id="1" parent="0" />
      </root>
    </mxGraphModel>
  </diagram>
</mxfile>
